name C:\Users\antoi\Documents\MyRepositories\upper-imu-dc\Results\main_tracking\Case_81\kinematics.mot
datacolumns 10
datarows 52
range 0.70000000 1.21000000
endheader 
time	clav_prot	clav_elev	scapula_abduction	scapula_elevation	scapula_upward_rot	scapula_winging	plane_elv	shoulder_elv	axial_rot	
          0.70000000	        -43.74300327	        -12.14095217	        -49.99605057	         -8.87450776	          3.10281656	          5.79388810	         -2.58755905	         11.62724054	         58.53698842	
          0.71000000	        -43.63468698	        -12.54797855	        -49.97243928	         -9.08905251	          2.75456267	          6.17058190	         -1.40069626	         12.04295842	         57.22840160	
          0.72000000	        -43.51813060	        -12.95588555	        -49.93397417	         -9.30441161	          2.41098137	          6.55004056	         -0.20989244	         12.46261215	         55.92346924	
          0.73000000	        -43.40060435	        -13.36629409	        -49.89426402	         -9.52318074	          2.06938253	          6.93354306	          0.97888508	         12.88688099	         54.62014848	
          0.74000000	        -43.28229336	        -13.77918325	        -49.85344212	         -9.74552131	          1.73016815	          7.32100958	          2.16542099	         13.31453372	         53.31641042	
          0.75000000	        -43.16221307	        -14.19430996	        -49.81008957	         -9.97125791	          1.39344511	          7.71285458	          3.34981613	         13.74533432	         52.01247825	
          0.76000000	        -43.03910775	        -14.61128577	        -49.76244179	        -10.20003642	          1.05916090	          8.10952615	          4.53234096	         14.17939143	         50.70898148	
          0.77000000	        -42.91165963	        -15.02966033	        -49.70867809	        -10.43140217	          0.72710205	          8.51144389	          5.71322716	         14.61700326	         49.40669591	
          0.78000000	        -42.77859597	        -15.44895950	        -49.64705989	        -10.66484371	          0.39692066	          8.91896127	          6.89261382	         15.05858595	         48.10642886	
          0.79000000	        -42.63869439	        -15.86868943	        -49.57594380	        -10.89979039	          0.06811712	          9.33236490	          8.07054550	         15.50470690	         46.80901707	
          0.80000000	        -42.49076685	        -16.28832878	        -49.49374469	        -11.13561153	         -0.25993347	          9.75186911	          9.24692687	         15.95611971	         45.51533917	
          0.81000000	        -42.33360163	        -16.70728912	        -49.39879849	        -11.37161328	         -0.58786663	         10.17759408	         10.42151873	         16.41377754	         44.22635956	
          0.82000000	        -42.16628716	        -17.12499058	        -49.28978246	        -11.60715838	         -0.91619225	         10.60944753	         11.59405295	         16.87875961	         42.94296196	
          0.83000000	        -41.98869939	        -17.54098379	        -49.16630866	        -11.84189444	         -1.24495300	         11.04695852	         12.76386579	         17.35196252	         41.66428001	
          0.84000000	        -41.80103511	        -17.95489251	        -49.02837449	        -12.07559637	         -1.57400646	         11.48951760	         13.93030551	         17.83429481	         40.38942691	
          0.85000000	        -41.60346564	        -18.36626890	        -48.87590762	        -12.30798842	         -1.90315491	         11.93645191	         15.09263495	         18.32678568	         39.11747810	
          0.86000000	        -41.39629021	        -18.77466780	        -48.70900378	        -12.53880985	         -2.23215676	         12.38701450	         16.24995763	         18.83047371	         37.84727189	
          0.87000000	        -41.17991164	        -19.17965580	        -48.52790625	        -12.76781332	         -2.56075140	         12.84041081	         17.40126881	         19.34638808	         36.57746440	
          0.88000000	        -40.95486657	        -19.58083821	        -48.33305730	        -12.99478944	         -2.88865696	         13.29581238	         18.54554398	         19.87550035	         35.30649077	
          0.89000000	        -40.72179954	        -19.97785121	        -48.12506852	        -13.21955657	         -3.21557804	         13.75237006	         19.68175611	         20.41869363	         34.03264549	
          0.90000000	        -40.48128829	        -20.37029963	        -47.90447533	        -13.44188427	         -3.54125463	         14.20924605	         20.80875478	         20.97683775	         32.75433269	
          0.91000000	        -40.23400926	        -20.75781327	        -47.67199248	        -13.66155056	         -3.86545868	         14.66559057	         21.92543398	         21.55071066	         31.46987867	
          0.92000000	        -39.98062637	        -21.14001134	        -47.42834550	        -13.87830500	         -4.18799658	         15.12056127	         23.03066538	         22.14102093	         30.17775283	
          0.93000000	        -39.72172689	        -21.51647316	        -47.17416471	        -14.09184337	         -4.50869759	         15.57332105	         24.12329024	         22.74840213	         28.87673687	
          0.94000000	        -39.45784084	        -21.88674722	        -46.91001198	        -14.30181736	         -4.82740925	         16.02303380	         25.20217315	         23.37339698	         27.56595664	
          0.95000000	        -39.18938524	        -22.25033465	        -46.63627548	        -14.50782781	         -5.14396077	         16.46886368	         26.26618982	         24.01645039	         26.24504089	
          0.96000000	        -38.91666380	        -22.60669068	        -46.35315522	        -14.70943325	         -5.45813660	         16.90996824	         27.31428001	         24.67789724	         24.91419849	
          0.97000000	        -38.63985463	        -22.95522274	        -46.06062561	        -14.90615780	         -5.76964033	         17.34549231	         28.34546999	         25.35794921	         23.57429812	
          0.98000000	        -38.35898188	        -23.29528032	        -45.75836562	        -15.09749559	         -6.07804332	         17.77455840	         29.35887516	         26.05667558	         22.22696476	
          0.99000000	        -38.07391947	        -23.62615838	        -45.44574788	        -15.28292309	         -6.38275180	         18.19625909	         30.35372988	         26.77399229	         20.87460599	
          1.00000000	        -37.78440751	        -23.94710719	        -45.12185402	        -15.46191449	         -6.68298504	         18.60965288	         31.32941571	         27.50965823	         19.52039172	
          1.01000000	        -37.49007123	        -24.25734247	        -44.78549893	        -15.63395487	         -6.97776310	         19.01376182	         32.28547185	         28.26327626	         18.16821562	
          1.02000000	        -37.19043862	        -24.55605348	        -44.43525625	        -15.79855019	         -7.26589978	         19.40756964	         33.22158933	         29.03430045	         16.82260376	
          1.03000000	        -36.88498924	        -24.84242539	        -44.06955248	        -15.95523994	         -7.54603528	         19.79002817	         34.13761750	         29.82205755	         15.48858256	
          1.04000000	        -36.57319126	        -25.11565640	        -43.68674691	        -16.10360253	         -7.81667754	         20.16006601	         35.03354719	         30.62577682	         14.17153148	
          1.05000000	        -36.25453700	        -25.37497435	        -43.28521287	        -16.24325868	         -8.07624954	         20.51659943	         35.90948541	         31.44461684	         12.87703150	
          1.06000000	        -35.92857960	        -25.61965414	        -42.86342847	        -16.37387100	         -8.32315407	         20.85854720	         36.76563239	         32.27769940	         11.61070908	
          1.07000000	        -35.59496618	        -25.84903429	        -42.42006554	        -16.49514080	         -8.55584593	         21.18484784	         37.60226099	         33.12414334	         10.37808698	
          1.08000000	        -35.25346015	        -26.06252859	        -41.95405752	        -16.60680266	         -8.77289669	         21.49447633	         38.41969523	         33.98308949	          9.18445504	
          1.09000000	        -34.90395320	        -26.25963298	        -41.46464710	        -16.70861657	         -8.97305261	         21.78645946	         39.21829099	         34.85371916	          8.03476696	
          1.10000000	        -34.54647525	        -26.43993086	        -40.95142949	        -16.80035911	         -9.15529142	         22.05989096	         39.99842788	         35.73526916	          6.93355543	
          1.11000000	        -34.18119971	        -26.60309612	        -40.41438412	        -16.88181482	         -9.31887161	         22.31394569	         40.76050727	         36.62704037	          5.88487126	
          1.12000000	        -33.80843546	        -26.74889040	        -39.85387399	        -16.95276850	         -9.46335882	         22.54789014	         41.50494657	         37.52839471	          4.89225513	
          1.13000000	        -33.42861857	        -26.87716148	        -39.27064124	        -17.01300019	         -9.58864650	         22.76109354	         42.23217849	         38.43874979	          3.95872442	
          1.14000000	        -33.04230353	        -26.98784378	        -38.66579841	        -17.06228416	         -9.69496938	         22.95304063	         42.94265297	         39.35757275	          3.08677125	
          1.15000000	        -32.65015244	        -27.08096069	        -38.04081133	        -17.10039212	         -9.78290727	         23.12334568	         43.63683855	         40.28437290	          2.27837044	
          1.16000000	        -32.25292282	        -27.15662857	        -37.39747514	        -17.12710029	         -9.85337977	         23.27176738	         44.31522343	         41.21869358	          1.53499478	
          1.17000000	        -31.85145525	        -27.21506229	        -36.73788631	        -17.14219955	         -9.90763432	         23.39822407	         44.97831698	         42.16010416	          0.85763446	
          1.18000000	        -31.44666188	        -27.25658203	        -36.06441329	        -17.14550749	         -9.94722958	         23.50280858	         45.62665184	         43.10819301	          0.24681809	
          1.19000000	        -31.03951646	        -27.28162006	        -35.37966757	        -17.13688081	         -9.97401614	         23.58580144	         46.26078706	         44.06256211	         -0.29736568	
          1.20000000	        -30.63104615	        -27.29072653	        -34.68647678	        -17.11622623	         -9.99011695	         23.64768122	         46.88131238	         45.02282393	         -0.77524762	
          1.21000000	        -30.22232706	        -27.28457350	        -33.98786294	        -17.08350938	         -9.99790712	         23.68913093	         47.48885471	         45.98860030	         -1.18756663	
